#!OML:ASF H:\Male1\Project 1\Capture day 1\Session 1\Male1.ASF
:FULLY-SPECIFIED
:DEGREES
745
root 38.5918 15.1607 -0.410012 -1058.69 92.236 1108.59
lowerback 5.3599 0.763184 2.34946
upperback 4.52315 1.23124 -0.865622
thorax 1.72109 0.741158 -2.25152
lowerneck -9.34328 3.33077 6.60626
upperneck 13.7212 4.04895 -2.93222
head 5.8843 2.13261 -1.68158
rclavicle 1.29955e-014 1.19271e-015
rhumerus -32.7789 -3.01213 -87.4397
rradius 25.2422
rwrist -12.1868
rhand -18.1537 -0.983111
rfingers 7.12502
rthumb 8.12201 -30.807
lclavicle 1.29955e-014 1.19271e-015
lhumerus -31.3921 -9.7412 88.9532
lradius 33.6294
lwrist 1.61829
lhand -20.5207 14.029
lfingers 7.12502
lthumb 5.83709 43.9286
rfemur -15.3266 13.5015 21.2629
rtibia 24.9705
rfoot -14.4941 -23.3642
rtoes 9.50404
lfemur 13.9618 -9.25195 -22.9312
ltibia 29.2749
lfoot -20.4973 5.32648
ltoes -10.6217
746
root 38.3729 15.1425 -0.451061 -1041.03 91.313 1126.18
lowerback 5.74003 0.880961 2.17318
upperback 4.65149 1.399 -1.06648
thorax 1.65305 0.828221 -2.372
lowerneck -8.9857 3.59295 7.1179
upperneck 13.0251 4.39508 -3.37371
head 5.64352 2.28702 -1.88328
rclavicle 1.39895e-014 -6.75868e-015
rhumerus -32.2481 -2.98631 -87.9269
rradius 25.8932
rwrist -12.1668
rhand -16.7948 -3.06187
rfingers 7.12502
rthumb 9.43333 -32.8308
lclavicle 1.39895e-014 -6.75868e-015
lhumerus -30.9018 -10.4709 88.9674
lradius 33.529
lwrist 1.87645
lhand -20.6585 14.3296
lfingers 7.12502
lthumb 5.70404 44.2328
rfemur -16.3723 14.3659 20.7704
rtibia 24.7824
rfoot -16.8155 -22.2556
rtoes 24.0269
lfemur 14.5864 -8.49007 -23.5719
ltibia 26.9873
lfoot -21.9062 7.43338
ltoes -9.50691
747
root 38.1629 15.131 -0.486663 -1012.59 90.527 1154.75
lowerback 6.16143 0.893275 1.51384
upperback 4.91452 1.41236 -1.30543
thorax 1.68125 0.831836 -2.25444
lowerneck -8.98249 3.82965 7.4358
upperneck 12.5804 4.67912 -3.57215
head 5.53207 2.41829 -1.9758
rclavicle 2.00773e-014 -9.54166e-015
rhumerus -31.8222 -2.70584 -88.4859
rradius 26.962
rwrist -13.5387
rhand -15.8216 -3.14571
rfingers 7.12502
rthumb 10.3722 -32.8699
lclavicle 2.00773e-014 -9.54166e-015
lhumerus -30.2881 -11.053 88.9354
lradius 33.1979
lwrist 1.835
lhand -20.6615 14.5124
lfingers 7.12502
lthumb 5.7012 44.4157
rfemur -17.1413 14.9752 19.9019
rtibia 24.6074
rfoot -15.0288 -22.6119
rtoes 18.8716
lfemur 15.1999 -7.9268 -24.5403
ltibia 24.8972
lfoot -22.4528 9.19001
ltoes -8.32334
748
root 37.9226 15.1341 -0.522942 -927.027 91.0445 1240
lowerback 6.61943 0.994294 1.13137
upperback 4.98808 1.54159 -1.45648
thorax 1.50414 0.891378 -2.21101
lowerneck -9.22882 4.10071 7.80953
upperneck 12.2265 4.99165 -3.84279
head 5.49791 2.55866 -2.0928
rclavicle 7.7526e-015 -3.97569e-016
rhumerus -31.5504 -2.14661 -89.1914
rradius 28.3833
rwrist -16.7377
rhand -15.376 -2.19252
rfingers 7.12502
rthumb 10.8021 -31.8947
lclavicle 7.7526e-015 -3.97569e-016
lhumerus -29.5927 -11.4311 88.821
lradius 32.7673
lwrist 1.42546
lhand -20.4555 14.6343
lfingers 7.12502
lthumb 5.90008 44.5322
rfemur -18.5609 16.285 19.174
rtibia 24.3651
rfoot -14.3015 -22.8524
rtoes 17.3908
lfemur 14.8423 -7.46091 -24.9718
ltibia 23.2392
lfoot -22.8218 10.4019
ltoes -4.61462
749
root 37.7295 15.1305 -0.557855 -889.907 91.5412 1277.41
lowerback 6.93452 0.94121 0.0180794
upperback 5.35461 1.44611 -1.75432
thorax 1.68573 0.83265 -1.89086
lowerneck -9.18369 4.321 8.16651
upperneck 11.614 5.27207 -4.25423
head 5.33673 2.67417 -2.26003
rclavicle 2.85753e-014 -1.66979e-014
rhumerus -31.4886 -1.64703 -89.8273
rradius 29.9669
rwrist -20.2368
rhand -14.86 -0.725291
rfingers 7.12502
rthumb 11.2998 -30.4009
lclavicle 2.85753e-014 -1.66979e-014
lhumerus -28.9461 -11.7181 88.7261
lradius 32.1678
lwrist 0.822171
lhand -20.3365 14.681
lfingers 7.12502
lthumb 6.01494 44.5756
rfemur -18.9985 16.4171 17.8832
rtibia 24.3124
rfoot -13.5972 -22.2366
rtoes 12.8812
lfemur 15.1853 -7.48062 -26.2654
ltibia 21.8126
lfoot -22.9907 11.445
ltoes -2.745
